<svg width="24" height="24" viewBox="0 0 24 24" fill="none" xmlns="http://www.w3.org/2000/svg">
<path d="M12 0C5.38327 0 0 5.38327 0 12C0 18.6167 5.38327 24 12 24C18.6167 24 24 18.6167 24 12C24 5.38327 18.6167 0 12 0ZM12.1154 5.53846C12.9369 5.53846 13.74 5.78208 14.4231 6.23851C15.1062 6.69494 15.6386 7.34368 15.953 8.1027C16.2674 8.86172 16.3497 9.69692 16.1894 10.5027C16.0291 11.3085 15.6335 12.0486 15.0526 12.6295C14.4717 13.2104 13.7315 13.6061 12.9258 13.7663C12.12 13.9266 11.2848 13.8444 10.5258 13.53C9.76676 13.2156 9.11802 12.6832 8.66159 12.0001C8.20516 11.317 7.96154 10.5139 7.96154 9.69231C7.96154 8.59064 8.39917 7.53409 9.17817 6.7551C9.95717 5.9761 11.0137 5.53846 12.1154 5.53846V5.53846ZM12 22.1538C10.5995 22.1544 9.21409 21.8645 7.93131 21.3025C6.64854 20.7404 5.49627 19.9185 4.54731 18.8885C5.05731 16.2473 9.63808 15.6923 12 15.6923C14.3619 15.6923 18.9427 16.2473 19.4527 18.8879C18.5038 19.9181 17.3516 20.7402 16.0688 21.3024C14.786 21.8645 13.4006 22.1545 12 22.1538V22.1538Z" fill="#2B3138"/>
</svg>
